<svg width="40" height="40" viewBox="0 0 40 40" fill="none" xmlns="http://www.w3.org/2000/svg">
<path d="M29.8043 14.6793C30.0507 14.4328 30.1892 14.0985 30.1892 13.75C30.1892 13.4015 30.0507 13.0672 29.8043 12.8208C29.5578 12.5743 29.2235 12.4359 28.875 12.4359C28.5265 12.4359 28.1922 12.5743 27.9458 12.8208L21 19.7691L17.9918 16.7583C17.8697 16.6362 17.7249 16.5394 17.5654 16.4734C17.406 16.4073 17.2351 16.3734 17.0625 16.3734C16.8899 16.3734 16.719 16.4073 16.5596 16.4734C16.4002 16.5394 16.2553 16.6362 16.1333 16.7583C16.0112 16.8803 15.9144 17.0252 15.8484 17.1846C15.7823 17.344 15.7484 17.5149 15.7484 17.6875C15.7484 17.8601 15.7823 18.031 15.8484 18.1904C15.9144 18.3499 16.0112 18.4947 16.1333 18.6168L20.0708 22.5543C20.1927 22.6765 20.3375 22.7735 20.497 22.8396C20.6564 22.9058 20.8274 22.9399 21 22.9399C21.1726 22.9399 21.3436 22.9058 21.503 22.8396C21.6625 22.7735 21.8073 22.6765 21.9293 22.5543L29.8043 14.6793Z" fill="#3AD280"/>
<path d="M1.3125 0.625C0.964403 0.625 0.630564 0.763281 0.384422 1.00942C0.138281 1.25556 0 1.5894 0 1.9375C0 2.2856 0.138281 2.61944 0.384422 2.86558C0.630564 3.11172 0.964403 3.25 1.3125 3.25H4.22625L5.27887 7.46838L9.21113 28.429C9.26743 28.7298 9.42705 29.0014 9.66239 29.197C9.89773 29.3925 10.194 29.4997 10.5 29.5H13.125C11.7326 29.5 10.3973 30.0531 9.41269 31.0377C8.42812 32.0223 7.875 33.3576 7.875 34.75C7.875 36.1424 8.42812 37.4777 9.41269 38.4623C10.3973 39.4469 11.7326 40 13.125 40C14.5174 40 15.8527 39.4469 16.8373 38.4623C17.8219 37.4777 18.375 36.1424 18.375 34.75C18.375 33.3576 17.8219 32.0223 16.8373 31.0377C15.8527 30.0531 14.5174 29.5 13.125 29.5H31.5C30.1076 29.5 28.7723 30.0531 27.7877 31.0377C26.8031 32.0223 26.25 33.3576 26.25 34.75C26.25 36.1424 26.8031 37.4777 27.7877 38.4623C28.7723 39.4469 30.1076 40 31.5 40C32.8924 40 34.2277 39.4469 35.2123 38.4623C36.1969 37.4777 36.75 36.1424 36.75 34.75C36.75 33.3576 36.1969 32.0223 35.2123 31.0377C34.2277 30.0531 32.8924 29.5 31.5 29.5H34.125C34.431 29.4997 34.7273 29.3925 34.9626 29.197C35.198 29.0014 35.3576 28.7298 35.4139 28.429L39.3514 7.429C39.3868 7.23957 39.3801 7.04466 39.3318 6.85811C39.2834 6.67156 39.1946 6.49795 39.0715 6.34961C38.9485 6.20127 38.7943 6.08185 38.6199 5.99982C38.4455 5.91779 38.2552 5.87518 38.0625 5.875H7.58625L6.52312 1.61987C6.45227 1.33581 6.28848 1.08358 6.05779 0.903315C5.82711 0.723046 5.54277 0.625081 5.25 0.625H1.3125ZM11.5894 26.875L8.14275 8.5H36.4823L33.0356 26.875H11.5894ZM15.75 34.75C15.75 35.4462 15.4734 36.1139 14.9812 36.6062C14.4889 37.0984 13.8212 37.375 13.125 37.375C12.4288 37.375 11.7611 37.0984 11.2688 36.6062C10.7766 36.1139 10.5 35.4462 10.5 34.75C10.5 34.0538 10.7766 33.3861 11.2688 32.8938C11.7611 32.4016 12.4288 32.125 13.125 32.125C13.8212 32.125 14.4889 32.4016 14.9812 32.8938C15.4734 33.3861 15.75 34.0538 15.75 34.75ZM34.125 34.75C34.125 35.4462 33.8484 36.1139 33.3562 36.6062C32.8639 37.0984 32.1962 37.375 31.5 37.375C30.8038 37.375 30.1361 37.0984 29.6438 36.6062C29.1516 36.1139 28.875 35.4462 28.875 34.75C28.875 34.0538 29.1516 33.3861 29.6438 32.8938C30.1361 32.4016 30.8038 32.125 31.5 32.125C32.1962 32.125 32.8639 32.4016 33.3562 32.8938C33.8484 33.3861 34.125 34.0538 34.125 34.75Z" fill="#3AD280"/>
</svg>
